<svg width="13" height="13" viewBox="0 0 13 13" fill="none" xmlns="http://www.w3.org/2000/svg">
<path d="M10.9001 6.5V12H2.1001V6.5" stroke="#959595" stroke-linecap="round" stroke-linejoin="round"/>
<path d="M12 3.75H1V6.5H12V3.75Z" stroke="#959595" stroke-linecap="round" stroke-linejoin="round"/>
<path d="M6.5 12V3.75" stroke="#959595" stroke-linecap="round" stroke-linejoin="round"/>
<path d="M6.4999 3.75H4.0249C3.66023 3.75 3.31049 3.60513 3.05263 3.34727C2.79477 3.08941 2.6499 2.73967 2.6499 2.375C2.6499 2.01033 2.79477 1.66059 3.05263 1.40273C3.31049 1.14487 3.66023 1 4.0249 1C5.9499 1 6.4999 3.75 6.4999 3.75Z" stroke="#959595" stroke-linecap="round" stroke-linejoin="round"/>
<path d="M6.5 3.75H8.975C9.33967 3.75 9.68941 3.60513 9.94727 3.34727C10.2051 3.08941 10.35 2.73967 10.35 2.375C10.35 2.01033 10.2051 1.66059 9.94727 1.40273C9.68941 1.14487 9.33967 1 8.975 1C7.05 1 6.5 3.75 6.5 3.75Z" stroke="#959595" stroke-linecap="round" stroke-linejoin="round"/>
</svg>
