<svg width="18" height="18" viewBox="0 0 18 18" fill="none" xmlns="http://www.w3.org/2000/svg">
<path d="M16.75 8.43753C16.753 9.59241 16.4832 10.7317 15.9625 11.7625C15.3451 12.9978 14.396 14.0368 13.2215 14.7631C12.047 15.4895 10.6935 15.8745 9.3125 15.875C8.15762 15.878 7.01835 15.6082 5.9875 15.0875L1 16.75L2.6625 11.7625C2.14181 10.7317 1.87199 9.59241 1.875 8.43753C1.87553 7.05656 2.26054 5.70302 2.98688 4.52851C3.71322 3.35399 4.75222 2.4049 5.9875 1.78753C7.01835 1.26684 8.15762 0.997014 9.3125 1.00002H9.75C11.5738 1.10064 13.2964 1.87044 14.588 3.16203C15.8796 4.45361 16.6494 6.17622 16.75 8.00003V8.43753Z" stroke="black" stroke-width="2" stroke-linecap="round" stroke-linejoin="round"/>
</svg>
