<svg width="688" height="314" viewBox="0 0 688 314" fill="none" xmlns="http://www.w3.org/2000/svg">
<path d="M55.2656 94.9302C55.2656 147.359 96.7202 189.86 147.856 189.86C83.2445 183.256 88.1757 108.851 147.756 94.208C221.225 76.1508 196.366 1.65096 147.856 0C96.7202 0 55.2656 42.5017 55.2656 94.9302Z" fill="url(#paint0_linear_715_372)"/>
<path d="M150.414 314.001C198.69 314.001 237.825 271.499 237.825 219.07C237.825 166.642 198.69 124.14 150.414 124.14C196.21 125.791 219.678 200.291 150.319 218.348C94.0723 232.992 89.4163 307.396 150.414 314.001Z" fill="url(#paint1_linear_715_372)"/>
<path d="M28.7858 190.651C23.09 190.651 17.6132 189.906 12.3555 188.416C7.09786 186.839 2.97935 184.867 0 182.501L5.25767 172.512C8.32465 174.702 12.0488 176.455 16.4302 177.769C20.8116 179.084 25.2368 179.741 29.7059 179.741C40.747 179.741 46.2675 176.586 46.2675 170.277C46.2675 168.174 45.5227 166.509 44.033 165.282C42.5433 164.056 40.6593 163.179 38.381 162.653C36.1903 162.04 33.0357 161.383 28.9172 160.682C23.309 159.806 18.7086 158.798 15.1158 157.659C11.6107 156.519 8.58753 154.592 6.04632 151.875C3.50512 149.159 2.23451 145.347 2.23451 140.44C2.23451 134.131 4.86335 129.092 10.121 125.324C15.3787 121.468 22.4327 119.541 31.2832 119.541C35.9274 119.541 40.5717 120.11 45.216 121.249C49.8603 122.388 53.6721 123.922 56.6514 125.85L51.2623 135.839C45.5665 132.159 38.863 130.319 31.1517 130.319C25.8064 130.319 21.7317 131.195 18.9276 132.948C16.1235 134.7 14.7215 137.022 14.7215 139.914C14.7215 142.192 15.5101 143.989 17.0874 145.303C18.6647 146.618 20.5926 147.581 22.8709 148.195C25.2368 148.808 28.5229 149.509 32.729 150.298C38.3372 151.262 42.85 152.313 46.2675 153.453C49.7726 154.504 52.752 156.344 55.2056 158.973C57.6592 161.602 58.886 165.282 58.886 170.014C58.886 176.323 56.1695 181.362 50.7366 185.13C45.3913 188.81 38.0743 190.651 28.7858 190.651Z" fill="black"/>
<path d="M140.879 190.649C133.956 190.649 127.735 189.115 122.214 186.048C116.694 182.981 112.356 178.775 109.202 173.43C106.135 167.997 104.601 161.863 104.601 155.028C104.601 148.193 106.135 142.103 109.202 136.757C112.356 131.324 116.694 127.118 122.214 124.139C127.735 121.072 133.956 119.539 140.879 119.539C147.802 119.539 153.979 121.072 159.412 124.139C164.933 127.118 169.227 131.324 172.294 136.757C175.448 142.103 177.026 148.193 177.026 155.028C177.026 161.863 175.448 167.997 172.294 173.43C169.227 178.775 164.933 182.981 159.412 186.048C153.979 189.115 147.802 190.649 140.879 190.649ZM140.879 179.607C145.348 179.607 149.335 178.6 152.84 176.584C156.433 174.481 159.237 171.59 161.253 167.909C163.268 164.141 164.276 159.847 164.276 155.028C164.276 150.208 163.268 145.958 161.253 142.278C159.237 138.51 156.433 135.618 152.84 133.603C149.335 131.587 145.348 130.58 140.879 130.58C136.41 130.58 132.379 131.587 128.786 133.603C125.281 135.618 122.477 138.51 120.374 142.278C118.359 145.958 117.351 150.208 117.351 155.028C117.351 159.847 118.359 164.141 120.374 167.909C122.477 171.59 125.281 174.481 128.786 176.584C132.379 178.6 136.41 179.607 140.879 179.607ZM294.708 120.196V189.86H282.747V179.345C280.206 182.937 276.832 185.741 272.626 187.757C268.508 189.685 263.995 190.649 259.088 190.649C249.799 190.649 242.482 188.107 237.137 183.025C231.792 177.855 229.119 170.275 229.119 160.286V120.196H241.737V158.84C241.737 165.587 243.358 170.713 246.601 174.218C249.843 177.636 254.487 179.345 260.533 179.345C267.193 179.345 272.451 177.329 276.306 173.298C280.162 169.267 282.09 163.572 282.09 156.211V120.196H294.708ZM318.73 92.3301H331.348V189.86H318.73V92.3301ZM442.588 119.539C451.351 119.539 458.273 122.08 463.356 127.162C468.526 132.245 471.111 139.781 471.111 149.77V189.86H458.492V151.216C458.492 144.469 456.915 139.386 453.76 135.969C450.693 132.551 446.268 130.843 440.485 130.843C434.088 130.843 429.005 132.858 425.237 136.889C421.469 140.832 419.585 146.528 419.585 153.976V189.86H406.967V151.216C406.967 144.469 405.39 139.386 402.235 135.969C399.168 132.551 394.743 130.843 388.959 130.843C382.563 130.843 377.48 132.858 373.712 136.889C369.944 140.832 368.06 146.528 368.06 153.976V189.86H355.442V120.196H367.534V130.58C370.076 126.987 373.405 124.27 377.524 122.43C381.643 120.502 386.331 119.539 391.588 119.539C397.021 119.539 401.841 120.634 406.047 122.825C410.253 125.015 413.495 128.214 415.774 132.42C418.402 128.389 422.039 125.234 426.683 122.956C431.415 120.678 436.717 119.539 442.588 119.539ZM519.697 119.539C529.336 119.539 536.696 121.904 541.779 126.636C546.949 131.368 549.534 138.422 549.534 147.799V189.86H537.573V180.659C535.47 183.901 532.446 186.399 528.503 188.151C524.648 189.816 520.047 190.649 514.702 190.649C506.903 190.649 500.638 188.765 495.906 184.997C491.261 181.229 488.939 176.278 488.939 170.144C488.939 164.01 491.174 159.103 495.643 155.422C500.112 151.654 507.21 149.77 516.936 149.77H536.916V147.273C536.916 141.84 535.338 137.678 532.184 134.786C529.029 131.894 524.385 130.448 518.251 130.448C514.132 130.448 510.101 131.149 506.158 132.551C502.215 133.866 498.885 135.662 496.169 137.94L490.911 128.477C494.504 125.585 498.797 123.394 503.792 121.904C508.787 120.327 514.088 119.539 519.697 119.539ZM516.805 180.922C521.624 180.922 525.787 179.87 529.292 177.767C532.797 175.577 535.338 172.51 536.916 168.566V158.84H517.462C506.771 158.84 501.426 162.432 501.426 169.618C501.426 173.123 502.784 175.883 505.501 177.899C508.217 179.914 511.985 180.922 516.805 180.922ZM612.055 185.785C610.215 187.363 607.937 188.589 605.22 189.466C602.504 190.254 599.7 190.649 596.808 190.649C589.798 190.649 584.365 188.765 580.509 184.997C576.653 181.229 574.726 175.839 574.726 168.829V130.58H562.896V120.196H574.726V104.948H587.344V120.196H607.323V130.58H587.344V168.303C587.344 172.071 588.264 174.963 590.104 176.979C592.032 178.994 594.749 180.002 598.254 180.002C602.109 180.002 605.395 178.906 608.112 176.716L612.055 185.785ZM687.96 155.422C687.96 156.386 687.873 157.657 687.698 159.234H631.178C631.966 165.368 634.639 170.319 639.196 174.087C643.84 177.767 649.579 179.607 656.414 179.607C664.739 179.607 671.443 176.803 676.525 171.195L683.491 179.345C680.337 183.025 676.394 185.829 671.662 187.757C667.017 189.685 661.804 190.649 656.02 190.649C648.659 190.649 642.131 189.159 636.435 186.18C630.739 183.113 626.314 178.863 623.16 173.43C620.093 167.997 618.559 161.863 618.559 155.028C618.559 148.28 620.049 142.19 623.028 136.757C626.095 131.324 630.258 127.118 635.515 124.139C640.861 121.072 646.863 119.539 653.523 119.539C660.182 119.539 666.097 121.072 671.267 124.139C676.525 127.118 680.6 131.324 683.491 136.757C686.471 142.19 687.96 148.412 687.96 155.422ZM653.523 130.185C647.476 130.185 642.394 132.026 638.275 135.706C634.245 139.386 631.879 144.206 631.178 150.164H675.868C675.167 144.293 672.757 139.518 668.639 135.837C664.608 132.069 659.569 130.185 653.523 130.185Z" fill="black"/>
<defs>
<linearGradient id="paint0_linear_715_372" x1="124.638" y1="0" x2="124.638" y2="189.86" gradientUnits="userSpaceOnUse">
<stop stop-color="#BBFFF1"/>
<stop offset="1" stop-color="#AAADEC"/>
</linearGradient>
<linearGradient id="paint1_linear_715_372" x1="172.104" y1="124.14" x2="172.104" y2="314.001" gradientUnits="userSpaceOnUse">
<stop stop-color="#BBFFF1"/>
<stop offset="1" stop-color="#AAADEC"/>
</linearGradient>
</defs>
</svg>
