<svg width="130" height="59" viewBox="0 0 130 59" fill="none" xmlns="http://www.w3.org/2000/svg">
<path d="M10.3845 17.8372C10.3845 27.6884 18.1738 35.6744 27.7821 35.6744C15.6417 34.4335 16.5683 20.453 27.7633 17.7015C41.5679 14.3086 36.8971 0.310212 27.7821 0C18.1738 0 10.3845 7.98599 10.3845 17.8372Z" fill="url(#paint0_linear_386_310)"/>
<path d="M28.2626 59.0001C37.3335 59.0001 44.6869 51.0141 44.6869 41.1629C44.6869 31.3117 37.3335 23.3257 28.2626 23.3257C36.8675 23.6359 41.2771 37.6343 28.2447 41.0272C17.676 43.7787 16.8012 57.7592 28.2626 59.0001Z" fill="url(#paint1_linear_386_310)"/>
<path d="M5.40879 35.8229C4.33856 35.8229 3.30949 35.6829 2.32158 35.403C1.33367 35.1066 0.559814 34.7362 0 34.2916L0.987907 32.4146C1.56419 32.8262 2.26395 33.1555 3.08721 33.4025C3.91046 33.6495 4.74195 33.773 5.58167 33.773C7.65628 33.773 8.69358 33.1802 8.69358 31.9947C8.69358 31.5996 8.55363 31.2867 8.27372 31.0562C7.99381 30.8257 7.63981 30.6611 7.21172 30.5623C6.80009 30.447 6.20735 30.3235 5.43349 30.1918C4.37972 30.0271 3.5153 29.8378 2.84023 29.6238C2.18163 29.4097 1.61358 29.0475 1.13609 28.5371C0.658605 28.0266 0.41986 27.3104 0.41986 26.3884C0.41986 25.2029 0.913814 24.2561 1.90172 23.5481C2.88963 22.8237 4.21507 22.4614 5.87805 22.4614C6.7507 22.4614 7.62335 22.5684 8.496 22.7825C9.36865 22.9965 10.0849 23.2847 10.6447 23.6469L9.63209 25.5239C8.56186 24.8324 7.30228 24.4866 5.85335 24.4866C4.84898 24.4866 4.08335 24.6513 3.55646 24.9806C3.02958 25.3099 2.76614 25.7462 2.76614 26.2896C2.76614 26.7177 2.91433 27.0552 3.2107 27.3022C3.50707 27.5491 3.8693 27.7303 4.2974 27.8455C4.74195 27.9608 5.35939 28.0925 6.14972 28.2407C7.20349 28.4218 8.05144 28.6194 8.69358 28.8334C9.35219 29.031 9.912 29.3768 10.373 29.8707C10.834 30.3647 11.0646 31.0562 11.0646 31.9453C11.0646 33.1308 10.5541 34.0776 9.5333 34.7856C8.52893 35.4771 7.15409 35.8229 5.40879 35.8229Z" fill="black"/>
<path d="M26.4706 35.8225C25.1699 35.8225 24.0008 35.5344 22.9635 34.9581C21.9262 34.3818 21.1112 33.5915 20.5185 32.5871C19.9422 31.5663 19.6541 30.4137 19.6541 29.1294C19.6541 27.8451 19.9422 26.7008 20.5185 25.6964C21.1112 24.6756 21.9262 23.8853 22.9635 23.3255C24.0008 22.7492 25.1699 22.4611 26.4706 22.4611C27.7714 22.4611 28.9321 22.7492 29.953 23.3255C30.9903 23.8853 31.7971 24.6756 32.3734 25.6964C32.9661 26.7008 33.2625 27.8451 33.2625 29.1294C33.2625 30.4137 32.9661 31.5663 32.3734 32.5871C31.7971 33.5915 30.9903 34.3818 29.953 34.9581C28.9321 35.5344 27.7714 35.8225 26.4706 35.8225ZM26.4706 33.7479C27.3103 33.7479 28.0595 33.5585 28.7181 33.1798C29.3932 32.7847 29.9201 32.2413 30.2988 31.5498C30.6774 30.8418 30.8668 30.035 30.8668 29.1294C30.8668 28.2238 30.6774 27.4253 30.2988 26.7337C29.9201 26.0257 29.3932 25.4824 28.7181 25.1037C28.0595 24.725 27.3103 24.5357 26.4706 24.5357C25.6309 24.5357 24.8735 24.725 24.1984 25.1037C23.5398 25.4824 23.0129 26.0257 22.6178 26.7337C22.2391 27.4253 22.0497 28.2238 22.0497 29.1294C22.0497 30.035 22.2391 30.8418 22.6178 31.5498C23.0129 32.2413 23.5398 32.7847 24.1984 33.1798C24.8735 33.5585 25.6309 33.7479 26.4706 33.7479ZM55.3748 22.5845V35.6743H53.1274V33.6985C52.6499 34.3736 52.016 34.9004 51.2256 35.2791C50.4518 35.6414 49.6038 35.8225 48.6818 35.8225C46.9365 35.8225 45.5616 35.345 44.5573 34.39C43.5529 33.4186 43.0507 31.9944 43.0507 30.1173V22.5845H45.4217V29.8457C45.4217 31.1135 45.7263 32.0767 46.3355 32.7353C46.9447 33.3774 47.8174 33.6985 48.9534 33.6985C50.2048 33.6985 51.1927 33.3198 51.9172 32.5624C52.6416 31.805 53.0039 30.7348 53.0039 29.3517V22.5845H55.3748ZM59.8885 17.3486H62.2595V35.6743H59.8885V17.3486ZM83.1611 22.4611C84.8076 22.4611 86.1084 22.9385 87.0633 23.8935C88.0348 24.8485 88.5205 26.2645 88.5205 28.1415V35.6743H86.1495V28.4132C86.1495 27.1454 85.8531 26.1904 85.2604 25.5483C84.6841 24.9061 83.8526 24.5851 82.7659 24.5851C81.564 24.5851 80.609 24.9637 79.901 25.7211C79.193 26.4621 78.839 27.5323 78.839 28.9318V35.6743H76.468V28.4132C76.468 27.1454 76.1717 26.1904 75.5789 25.5483C75.0026 24.9061 74.1711 24.5851 73.0844 24.5851C71.8825 24.5851 70.9275 24.9637 70.2195 25.7211C69.5115 26.4621 69.1575 27.5323 69.1575 28.9318V35.6743H66.7865V22.5845H69.0587V24.5357C69.5362 23.8606 70.1619 23.3502 70.9357 23.0044C71.7096 22.6422 72.5905 22.4611 73.5784 22.4611C74.5992 22.4611 75.5048 22.6669 76.2951 23.0785C77.0855 23.4901 77.6947 24.0911 78.1228 24.8814C78.6167 24.124 79.3 23.5313 80.1727 23.1032C81.0618 22.6751 82.0579 22.4611 83.1611 22.4611ZM97.6497 22.4611C99.4609 22.4611 100.844 22.9056 101.799 23.7947C102.77 24.6838 103.256 26.0093 103.256 27.7711V35.6743H101.009V33.9455C100.613 34.5547 100.045 35.0239 99.3045 35.3532C98.58 35.6661 97.7156 35.8225 96.7112 35.8225C95.2458 35.8225 94.0686 35.4685 93.1794 34.7605C92.3068 34.0525 91.8705 33.1222 91.8705 31.9697C91.8705 30.8171 92.2903 29.8951 93.13 29.2035C93.9698 28.4955 95.3034 28.1415 97.1311 28.1415H100.885V27.6723C100.885 26.6514 100.589 25.8693 99.996 25.326C99.4033 24.7826 98.5306 24.511 97.378 24.511C96.6042 24.511 95.8468 24.6427 95.1059 24.9061C94.3649 25.1531 93.7393 25.4906 93.2288 25.9187L92.2409 24.1405C92.916 23.5971 93.7228 23.1855 94.6613 22.9056C95.5998 22.6092 96.596 22.4611 97.6497 22.4611ZM97.1064 33.9949C98.0119 33.9949 98.794 33.7973 99.4526 33.4021C100.111 32.9905 100.589 32.4142 100.885 31.6733V29.8457H97.2299C95.2211 29.8457 94.2167 30.5207 94.2167 31.8709C94.2167 32.5295 94.472 33.0481 94.9824 33.4268C95.4928 33.8055 96.2008 33.9949 97.1064 33.9949ZM115.004 34.9087C114.658 35.205 114.23 35.4356 113.719 35.6002C113.209 35.7484 112.682 35.8225 112.139 35.8225C110.822 35.8225 109.801 35.4685 109.076 34.7605C108.352 34.0525 107.99 33.0399 107.99 31.7227V24.5357H105.767V22.5845H107.99V19.7196H110.361V22.5845H114.115V24.5357H110.361V31.6239C110.361 32.3319 110.533 32.8752 110.879 33.2539C111.241 33.6326 111.752 33.822 112.41 33.822C113.135 33.822 113.752 33.6162 114.263 33.2045L115.004 34.9087ZM129.266 29.2035C129.266 29.3846 129.25 29.6234 129.217 29.9197H118.597C118.745 31.0723 119.247 32.0026 120.103 32.7106C120.976 33.4021 122.054 33.7479 123.339 33.7479C124.903 33.7479 126.162 33.221 127.117 32.1672L128.426 33.6985C127.834 34.39 127.093 34.9169 126.204 35.2791C125.331 35.6414 124.351 35.8225 123.265 35.8225C121.882 35.8225 120.655 35.5426 119.585 34.9828C118.514 34.4065 117.683 33.6079 117.09 32.5871C116.514 31.5663 116.226 30.4137 116.226 29.1294C116.226 27.8616 116.506 26.7173 117.066 25.6964C117.642 24.6756 118.424 23.8853 119.412 23.3255C120.416 22.7492 121.544 22.4611 122.795 22.4611C124.047 22.4611 125.158 22.7492 126.13 23.3255C127.117 23.8853 127.883 24.6756 128.426 25.6964C128.986 26.7173 129.266 27.8863 129.266 29.2035ZM122.795 24.4616C121.659 24.4616 120.704 24.8073 119.93 25.4989C119.173 26.1904 118.728 27.096 118.597 28.2156H126.994C126.862 27.1124 126.409 26.2151 125.636 25.5236C124.878 24.8156 123.931 24.4616 122.795 24.4616Z" fill="black"/>
<defs>
<linearGradient id="paint0_linear_386_310" x1="23.4194" y1="0" x2="23.4194" y2="35.6744" gradientUnits="userSpaceOnUse">
<stop stop-color="#BBFFF1"/>
<stop offset="1" stop-color="#AAADEC"/>
</linearGradient>
<linearGradient id="paint1_linear_386_310" x1="32.3381" y1="23.3257" x2="32.3381" y2="59.0001" gradientUnits="userSpaceOnUse">
<stop stop-color="#BBFFF1"/>
<stop offset="1" stop-color="#AAADEC"/>
</linearGradient>
</defs>
</svg>
