<svg width="49" height="81" viewBox="0 0 49 81" fill="none" xmlns="http://www.w3.org/2000/svg">
<g filter="url(#filter0_d_17:109)">
<path d="M42.4718 23.7674C38.3965 19.4129 32.412 15.0503 24.7916 15.0503C17.1711 15.0503 11.1867 19.4129 7.11133 23.7674M37.0191 45.8296C33.6162 48.1437 29.5186 49.8224 24.7916 49.8224C20.0645 49.8224 15.967 48.1437 12.5641 45.8296" stroke="white" stroke-width="3" stroke-linecap="round" stroke-linejoin="round"/>
<path d="M24.7912 38.956C28.392 38.956 31.311 36.037 31.311 32.4363C31.311 28.8355 28.392 25.9165 24.7912 25.9165C21.1905 25.9165 18.2715 28.8355 18.2715 32.4363C18.2715 36.037 21.1905 38.956 24.7912 38.956Z" stroke="white" stroke-width="3" stroke-linecap="round" stroke-linejoin="round"/>
<mask id="path-3-inside-1_17:109" fill="white">
<path fill-rule="evenodd" clip-rule="evenodd" d="M4 20.2604C4 9.0709 13.1781 0 24.4999 0C35.8218 0 44.9999 9.53665 44.9999 20.7262C44.9999 26.1675 42.8295 31.1079 39.2976 34.7477C38.591 35.4759 38.2076 36.4746 38.3532 37.4788L42.8836 68.7081C43.1461 70.5174 41.7429 72.1388 39.9147 72.1388H9.52577C7.7035 72.1388 6.30209 70.5275 6.55474 68.7228L10.9116 37.6027C11.0524 36.5964 10.6624 35.5986 9.95417 34.87C6.31837 31.1298 4 25.7725 4 20.2604Z"/>
</mask>
<path d="M9.95417 34.87L12.1053 32.779L9.95417 34.87ZM6.55474 68.7228L3.58372 68.3069L6.55474 68.7228ZM42.8836 68.7081L45.8525 68.2774L42.8836 68.7081ZM38.3532 37.4788L41.3221 37.0481L38.3532 37.4788ZM24.4999 -3C11.5546 -3 1 7.3809 1 20.2604H7C7 10.7609 14.8017 3 24.4999 3V-3ZM47.9999 20.7262C47.9999 7.93525 37.5335 -3 24.4999 -3V3C34.11 3 41.9999 11.1381 41.9999 20.7262H47.9999ZM41.4506 36.8369C45.5003 32.6634 47.9999 26.9832 47.9999 20.7262H41.9999C41.9999 25.3518 40.1586 29.5523 37.1446 32.6585L41.4506 36.8369ZM45.8525 68.2774L41.3221 37.0481L35.3843 37.9095L39.9147 69.1388L45.8525 68.2774ZM9.52577 75.1388H39.9147V69.1388H9.52577V75.1388ZM7.94054 37.1867L3.58372 68.3069L9.52577 69.1388L13.8826 38.0186L7.94054 37.1867ZM1 20.2604C1 26.5842 3.64465 32.6832 7.80301 36.9611L12.1053 32.779C8.9921 29.5763 7 24.9609 7 20.2604H1ZM13.8826 38.0186C14.1702 35.9644 13.3614 34.0712 12.1053 32.779L7.80301 36.9611C7.87502 37.0352 7.91318 37.1057 7.92969 37.1514C7.94465 37.1928 7.93843 37.2018 7.94054 37.1867L13.8826 38.0186ZM9.52577 69.1388H9.52577L3.58372 68.3069C3.07841 71.9162 5.88124 75.1388 9.52577 75.1388V69.1388ZM39.9147 69.1388H39.9147V75.1388C43.5712 75.1388 46.3775 71.896 45.8525 68.2774L39.9147 69.1388ZM37.1446 32.6585C35.882 33.9596 35.0871 35.8607 35.3843 37.9095L41.3221 37.0481C41.3242 37.0625 41.3183 37.0545 41.3321 37.0159C41.3473 36.9731 41.3828 36.9067 41.4506 36.8369L37.1446 32.6585Z" fill="white" mask="url(#path-3-inside-1_17:109)"/>
</g>
<defs>
<filter id="filter0_d_17:109" x="0" y="0" width="49" height="80.1387" filterUnits="userSpaceOnUse" color-interpolation-filters="sRGB">
<feFlood flood-opacity="0" result="BackgroundImageFix"/>
<feColorMatrix in="SourceAlpha" type="matrix" values="0 0 0 0 0 0 0 0 0 0 0 0 0 0 0 0 0 0 127 0" result="hardAlpha"/>
<feOffset dy="4"/>
<feGaussianBlur stdDeviation="2"/>
<feComposite in2="hardAlpha" operator="out"/>
<feColorMatrix type="matrix" values="0 0 0 0 0 0 0 0 0 0 0 0 0 0 0 0 0 0 0.25 0"/>
<feBlend mode="normal" in2="BackgroundImageFix" result="effect1_dropShadow_17:109"/>
<feBlend mode="normal" in="SourceGraphic" in2="effect1_dropShadow_17:109" result="shape"/>
</filter>
</defs>
</svg>
