<svg width="18" height="18" viewBox="0 0 18 18" fill="none" xmlns="http://www.w3.org/2000/svg">
<path d="M6.33203 14.3333V2.77778L16.9987 1V12.5556" stroke="black" stroke-width="1.5" stroke-linecap="round" stroke-linejoin="round"/>
<path d="M3.66667 16.9998C5.13943 16.9998 6.33333 15.8059 6.33333 14.3332C6.33333 12.8604 5.13943 11.6665 3.66667 11.6665C2.19391 11.6665 1 12.8604 1 14.3332C1 15.8059 2.19391 16.9998 3.66667 16.9998Z" stroke="black" stroke-width="1.5" stroke-linecap="round" stroke-linejoin="round"/>
<path d="M14.3346 15.222C15.8074 15.222 17.0013 14.0281 17.0013 12.5553C17.0013 11.0826 15.8074 9.88867 14.3346 9.88867C12.8619 9.88867 11.668 11.0826 11.668 12.5553C11.668 14.0281 12.8619 15.222 14.3346 15.222Z" stroke="black" stroke-width="1.5" stroke-linecap="round" stroke-linejoin="round"/>
</svg>
