<svg width="16" height="16" viewBox="0 0 16 16" fill="none" xmlns="http://www.w3.org/2000/svg">
<path d="M14.9866 8.00151C14.9866 7.08206 14.8057 6.17161 14.4543 5.32215C14.1028 4.47269 13.5877 3.70085 12.9384 3.0507C12.289 2.40054 11.5181 1.88482 10.6697 1.53296C9.82131 1.1811 8.91197 1 7.99365 1V8.00151H14.9866Z" stroke="black" stroke-width="1.5" stroke-linecap="round" stroke-linejoin="round"/>
<path d="M14.4336 10.7254C13.9888 11.7787 13.2929 12.7069 12.407 13.4289C11.5211 14.1508 10.472 14.6444 9.3515 14.8666C8.23101 15.0888 7.07321 15.0328 5.97932 14.7035C4.88544 14.3742 3.88878 13.7816 3.07649 12.9775C2.26419 12.1734 1.66098 11.1824 1.3196 10.091C0.978224 8.99959 0.909068 7.84108 1.11818 6.71674C1.32729 5.5924 1.80831 4.53647 2.51917 3.64125C3.23003 2.74604 4.1491 2.03881 5.19602 1.58139" stroke="black" stroke-width="1.5" stroke-linecap="round" stroke-linejoin="round"/>
</svg>
