<svg width="22" height="16" viewBox="0 0 22 16" fill="none" xmlns="http://www.w3.org/2000/svg">
<path d="M15 16C15 12.134 11.866 9 8 9C4.13401 9 1 12.134 1 16" stroke="black" stroke-width="2"/>
<path d="M8 9C10.2091 9 12 7.20914 12 5C12 2.79086 10.2091 1 8 1C5.79086 1 4 2.79086 4 5C4 7.20914 5.79086 9 8 9Z" stroke="black" stroke-width="2" stroke-linecap="round" stroke-linejoin="round"/>
<path d="M15 8.88503C18.8296 9.41372 21 12.5 21 16" stroke="black" stroke-width="2"/>
<path d="M15 1.13C15.8604 1.35031 16.623 1.85071 17.1676 2.55232C17.7122 3.25392 18.0078 4.11683 18.0078 5.005C18.0078 5.89318 17.7122 6.75608 17.1676 7.45769C16.623 8.1593 15.8604 8.6597 15 8.88" stroke="black" stroke-width="2" stroke-linecap="round" stroke-linejoin="round"/>
</svg>
