<svg width="54" height="54" viewBox="0 0 54 54" fill="none" xmlns="http://www.w3.org/2000/svg">
<path d="M27 52C40.8071 52 52 40.8071 52 27C52 13.1929 40.8071 2 27 2C13.1929 2 2 13.1929 2 27C2 40.8071 13.1929 52 27 52Z" stroke="#9AC5BC" stroke-width="4" stroke-linecap="round" stroke-linejoin="round"/>
<path d="M19.7246 17.3562C20.3124 15.6853 21.4725 14.2764 22.9995 13.379C24.5265 12.4816 26.3218 12.1535 28.0676 12.4529C29.8133 12.7524 31.3967 13.66 32.5373 15.015C33.678 16.37 34.3022 18.085 34.2996 19.8562C34.2996 24.8562 26.7996 27.3562 26.7996 27.3562V32.6145" stroke="#9AC5BC" stroke-width="4" stroke-linecap="round" stroke-linejoin="round"/>
<path d="M27 40.8042H27.025" stroke="#9AC5BC" stroke-width="4" stroke-linecap="round" stroke-linejoin="round"/>
</svg>
