<svg width="14" height="14" viewBox="0 0 14 14" fill="none" xmlns="http://www.w3.org/2000/svg">
<path d="M7.05033 7.66667C7.37249 7.66667 7.63366 7.4055 7.63366 7.08333C7.63366 6.76117 7.37249 6.5 7.05033 6.5C6.72816 6.5 6.467 6.76117 6.467 7.08333C6.467 7.4055 6.72816 7.66667 7.05033 7.66667Z" fill="black" stroke="black" stroke-width="2" stroke-linecap="round" stroke-linejoin="round"/>
<path d="M12.2173 7.66667C12.5395 7.66667 12.8007 7.4055 12.8007 7.08333C12.8007 6.76117 12.5395 6.5 12.2173 6.5C11.8952 6.5 11.634 6.76117 11.634 7.08333C11.634 7.4055 11.8952 7.66667 12.2173 7.66667Z" fill="black" stroke="black" stroke-width="2" stroke-linecap="round" stroke-linejoin="round"/>
<path d="M1.88334 7.66667C2.2055 7.66667 2.46667 7.4055 2.46667 7.08333C2.46667 6.76117 2.2055 6.5 1.88334 6.5C1.56117 6.5 1.3 6.76117 1.3 7.08333C1.3 7.4055 1.56117 7.66667 1.88334 7.66667Z" fill="black" stroke="black" stroke-width="2" stroke-linecap="round" stroke-linejoin="round"/>
</svg>
