<svg width="14" height="13" viewBox="0 0 14 13" fill="none" xmlns="http://www.w3.org/2000/svg">
<path d="M8.76613 4.18002L10.7898 2.15637M11.9461 1L10.7898 2.15637L11.9461 1ZM6.38979 6.55636C6.68833 6.85092 6.92565 7.20163 7.0881 7.5883C7.25054 7.97496 7.33489 8.38993 7.3363 8.80933C7.3377 9.22873 7.25613 9.64426 7.09628 10.032C6.93644 10.4197 6.70147 10.772 6.40491 11.0686C6.10835 11.3652 5.75605 11.6001 5.36831 11.76C4.98057 11.9198 4.56504 12.0014 4.14564 12C3.72625 11.9986 3.31127 11.9142 2.92461 11.7518C2.53795 11.5893 2.18723 11.352 1.89267 11.0535C1.3134 10.4537 0.992875 9.65044 1.00012 8.81665C1.00737 7.98286 1.3418 7.18527 1.93141 6.59567C2.52101 6.00607 3.31859 5.67163 4.15238 5.66439C4.98617 5.65714 5.78945 5.97767 6.38921 6.55693L6.38979 6.55636ZM6.38979 6.55636L8.76613 4.18002L6.38979 6.55636ZM8.76613 4.18002L10.5007 5.91457L12.5243 3.89092L10.7898 2.15637L8.76613 4.18002Z" stroke="#A5A5A5" stroke-linecap="round" stroke-linejoin="round"/>
</svg>
