<svg width="688" height="314" viewBox="0 0 688 314" fill="none" xmlns="http://www.w3.org/2000/svg">
<path d="M55.2656 94.9302C55.2656 147.359 96.7202 189.86 147.856 189.86C83.2445 183.256 88.1757 108.851 147.756 94.208C221.225 76.1508 196.366 1.65096 147.856 0C96.7202 0 55.2656 42.5017 55.2656 94.9302Z" fill="url(#paint0_linear_10_578)"/>
<path d="M150.415 314.001C198.69 314.001 237.826 271.499 237.826 219.07C237.826 166.642 198.69 124.14 150.415 124.14C196.21 125.791 219.679 200.291 150.32 218.348C94.0728 232.992 89.4168 307.396 150.415 314.001Z" fill="url(#paint1_linear_10_578)"/>
<path d="M28.7858 190.651C23.09 190.651 17.6132 189.906 12.3555 188.416C7.09786 186.839 2.97935 184.867 0 182.501L5.25767 172.512C8.32465 174.702 12.0488 176.455 16.4302 177.769C20.8116 179.084 25.2368 179.741 29.7059 179.741C40.747 179.741 46.2675 176.586 46.2675 170.277C46.2675 168.174 45.5227 166.509 44.033 165.282C42.5433 164.056 40.6593 163.179 38.381 162.653C36.1903 162.04 33.0357 161.383 28.9172 160.682C23.309 159.806 18.7086 158.798 15.1158 157.659C11.6107 156.519 8.58753 154.592 6.04632 151.875C3.50512 149.159 2.23451 145.347 2.23451 140.44C2.23451 134.131 4.86335 129.092 10.121 125.324C15.3787 121.468 22.4327 119.541 31.2832 119.541C35.9274 119.541 40.5717 120.11 45.216 121.249C49.8603 122.388 53.6721 123.922 56.6514 125.85L51.2623 135.839C45.5665 132.159 38.863 130.319 31.1517 130.319C25.8064 130.319 21.7317 131.195 18.9276 132.948C16.1235 134.7 14.7215 137.022 14.7215 139.914C14.7215 142.192 15.5101 143.989 17.0874 145.303C18.6647 146.618 20.5926 147.581 22.8709 148.195C25.2368 148.808 28.5229 149.509 32.729 150.298C38.3372 151.262 42.85 152.313 46.2675 153.453C49.7726 154.504 52.752 156.344 55.2056 158.973C57.6592 161.602 58.886 165.282 58.886 170.014C58.886 176.323 56.1695 181.362 50.7366 185.13C45.3913 188.81 38.0743 190.651 28.7858 190.651Z" fill="black"/>
<path d="M140.879 190.649C133.956 190.649 127.734 189.115 122.214 186.048C116.693 182.981 112.356 178.775 109.201 173.43C106.134 167.997 104.601 161.863 104.601 155.028C104.601 148.193 106.134 142.103 109.201 136.757C112.356 131.324 116.693 127.118 122.214 124.139C127.734 121.072 133.956 119.539 140.879 119.539C147.801 119.539 153.979 121.072 159.412 124.139C164.932 127.118 169.226 131.324 172.293 136.757C175.448 142.103 177.025 148.193 177.025 155.028C177.025 161.863 175.448 167.997 172.293 173.43C169.226 178.775 164.932 182.981 159.412 186.048C153.979 189.115 147.801 190.649 140.879 190.649ZM140.879 179.607C145.348 179.607 149.335 178.6 152.84 176.584C156.432 174.481 159.237 171.59 161.252 167.909C163.267 164.141 164.275 159.847 164.275 155.028C164.275 150.208 163.267 145.958 161.252 142.278C159.237 138.51 156.432 135.618 152.84 133.603C149.335 131.587 145.348 130.58 140.879 130.58C136.41 130.58 132.379 131.587 128.786 133.603C125.281 135.618 122.477 138.51 120.374 142.278C118.358 145.958 117.35 150.208 117.35 155.028C117.35 159.847 118.358 164.141 120.374 167.909C122.477 171.59 125.281 174.481 128.786 176.584C132.379 178.6 136.41 179.607 140.879 179.607ZM294.708 120.196V189.86H282.747V179.345C280.205 182.937 276.832 185.741 272.626 187.757C268.507 189.685 263.994 190.649 259.087 190.649C249.799 190.649 242.482 188.107 237.136 183.025C231.791 177.855 229.118 170.275 229.118 160.286V120.196H241.737V158.84C241.737 165.587 243.358 170.713 246.6 174.218C249.842 177.636 254.487 179.345 260.533 179.345C267.193 179.345 272.45 177.329 276.306 173.298C280.162 169.267 282.089 163.572 282.089 156.211V120.196H294.708ZM318.73 92.3301H331.348V189.86H318.73V92.3301ZM442.587 119.539C451.35 119.539 458.273 122.08 463.355 127.162C468.525 132.245 471.11 139.781 471.11 149.77V189.86H458.492V151.216C458.492 144.469 456.914 139.386 453.76 135.969C450.693 132.551 446.268 130.843 440.484 130.843C434.087 130.843 429.005 132.858 425.237 136.889C421.469 140.832 419.585 146.528 419.585 153.976V189.86H406.966V151.216C406.966 144.469 405.389 139.386 402.235 135.969C399.168 132.551 394.742 130.843 388.959 130.843C382.562 130.843 377.48 132.858 373.712 136.889C369.944 140.832 368.06 146.528 368.06 153.976V189.86H355.441V120.196H367.534V130.58C370.075 126.987 373.405 124.27 377.524 122.43C381.642 120.502 386.33 119.539 391.588 119.539C397.021 119.539 401.84 120.634 406.046 122.825C410.253 125.015 413.495 128.214 415.773 132.42C418.402 128.389 422.039 125.234 426.683 122.956C431.415 120.678 436.716 119.539 442.587 119.539ZM519.696 119.539C529.335 119.539 536.696 121.904 541.778 126.636C546.948 131.368 549.533 138.422 549.533 147.799V189.86H537.572V180.659C535.469 183.901 532.446 186.399 528.503 188.151C524.647 189.816 520.047 190.649 514.701 190.649C506.902 190.649 500.637 188.765 495.905 184.997C491.261 181.229 488.939 176.278 488.939 170.144C488.939 164.01 491.173 159.103 495.642 155.422C500.111 151.654 507.209 149.77 516.936 149.77H536.915V147.273C536.915 141.84 535.338 137.678 532.183 134.786C529.029 131.894 524.384 130.448 518.25 130.448C514.132 130.448 510.101 131.149 506.158 132.551C502.214 133.866 498.885 135.662 496.168 137.94L490.91 128.477C494.503 125.585 498.797 123.394 503.792 121.904C508.786 120.327 514.088 119.539 519.696 119.539ZM516.804 180.922C521.624 180.922 525.786 179.87 529.291 177.767C532.797 175.577 535.338 172.51 536.915 168.566V158.84H517.462C506.771 158.84 501.426 162.432 501.426 169.618C501.426 173.123 502.784 175.883 505.5 177.899C508.217 179.914 511.985 180.922 516.804 180.922ZM612.055 185.785C610.214 187.363 607.936 188.589 605.22 189.466C602.503 190.254 599.699 190.649 596.807 190.649C589.797 190.649 584.364 188.765 580.508 184.997C576.653 181.229 574.725 175.839 574.725 168.829V130.58H562.895V120.196H574.725V104.948H587.343V120.196H607.323V130.58H587.343V168.303C587.343 172.071 588.264 174.963 590.104 176.979C592.032 178.994 594.748 180.002 598.253 180.002C602.109 180.002 605.395 178.906 608.111 176.716L612.055 185.785ZM687.96 155.422C687.96 156.386 687.872 157.657 687.697 159.234H631.177C631.966 165.368 634.638 170.319 639.195 174.087C643.839 177.767 649.579 179.607 656.414 179.607C664.739 179.607 671.442 176.803 676.525 171.195L683.491 179.345C680.336 183.025 676.393 185.829 671.661 187.757C667.017 189.685 661.803 190.649 656.02 190.649C648.659 190.649 642.131 189.159 636.435 186.18C630.739 183.113 626.314 178.863 623.159 173.43C620.092 167.997 618.559 161.863 618.559 155.028C618.559 148.28 620.048 142.19 623.028 136.757C626.095 131.324 630.257 127.118 635.515 124.139C640.86 121.072 646.863 119.539 653.522 119.539C660.182 119.539 666.097 121.072 671.267 124.139C676.525 127.118 680.599 131.324 683.491 136.757C686.47 142.19 687.96 148.412 687.96 155.422ZM653.522 130.185C647.476 130.185 642.393 132.026 638.275 135.706C634.244 139.386 631.878 144.206 631.177 150.164H675.867C675.166 144.293 672.757 139.518 668.638 135.837C664.607 132.069 659.569 130.185 653.522 130.185Z" fill="black"/>
<defs>
<linearGradient id="paint0_linear_10_578" x1="124.638" y1="0" x2="124.638" y2="189.86" gradientUnits="userSpaceOnUse">
<stop stop-color="#BBFFF1"/>
<stop offset="1" stop-color="#AAADEC"/>
</linearGradient>
<linearGradient id="paint1_linear_10_578" x1="172.105" y1="124.14" x2="172.105" y2="314.001" gradientUnits="userSpaceOnUse">
<stop stop-color="#BBFFF1"/>
<stop offset="1" stop-color="#AAADEC"/>
</linearGradient>
</defs>
</svg>
